# xmcd
#
# Track frame offsets: 
#        225
#        23084
#        46476
#        68781
#        89104
#        109878
#        130698
#        148736
#        167903
#        184917
#        208900
#        230782
#        254700
#        280200
#        297431
#
# Disc length: 4230 seconds
#
# Revision: 0
# Processed by: cddbd v1.5.2PL0 Copyright (c) Steve Scherf et al.
# Submitted via: ExactAudioCopy v1.0b1
#
DISCID=f910830f
DTITLE=Various Artist - Seleksi Emas Vol. 2
DYEAR=1997
DGENRE=Melayu
TTITLE0=Ramli Sarip - Istilah Bercinta
TTITLE1=Jamal Abdillah - Penghujung Rindu
TTITLE2=Nash - Pada Syurga Di Wajah Mu
TTITLE3=SM Salim - Apa Dah Jadi
TTITLE4=Khatijah Ibrahim - Ku Pendam Sebuah Duka
TTITLE5=Francissca Peter - Kerna Terpaksa
TTITLE6=Ella - Pengemis Cinta
TTITLE7=Lefthanded - Legenda Cinta
TTITLE8=Dato' Shake - Lina
TTITLE9=Nora - Di Persimpangan Dilema
TTITLE10=Amelina - Asyik
TTITLE11=Iklim - Di Pintu Mahligai
TTITLE12=Artis RAP - Ikhlas Tapi Jauh
TTITLE13=Poe - Saman (A La La La Latuk)
TTITLE14=Shamsul 'Ghau-Ghau' - Lagu Hits Buat Mu
EXTD=
EXTT0=
EXTT1=
EXTT2=
EXTT3=
EXTT4=
EXTT5=
EXTT6=
EXTT7=
EXTT8=
EXTT9=
EXTT10=
EXTT11=
EXTT12=
EXTT13=
EXTT14=
PLAYORDER=
